# xmcd
#
# Track frame offsets: 
#        150
#        16664
#        32540
#        49003
#
# Disc length: 863 seconds
#
# Revision: 1
# Processed by: cddbd v1.5.2PL0 Copyright (c) Steve Scherf et al.
# Submitted via: ExactAudioCopy v1.0b3
#
DISCID=20035d04
DTITLE=TWO-FORMULA - 太陽と月のCROSS
DYEAR=2013
DGENRE=Anime
TTITLE0=太陽と月のCROSS
TTITLE1=Shangri-La
TTITLE2=太陽と月のCROSS(off Vocal)
TTITLE3=Shangri-La(off Vocal)
EXTD=
EXTT0=
EXTT1=
EXTT2=
EXTT3=
PLAYORDER=
